# xmcd CD database file
#
# Track frame offsets:
#	150
#	12870
#	24287
#	36044
#	49131
#	61748
#	75592
#	89872
#	102584
#	115129
#	129018
#	143327
#	157495
#	169778
#	184363
#	196590
#	210019
#	222641
#	239264
#	255628
#	273726
#	291394
#	310624
#	327062
#	340986
#
# Disc length: 4683 seconds
#
# Revision: 0
# Processed by: cddbd v1.5.2PL0 Copyright (c) Steve Scherf et al.
# Submitted via: CDex 1.70beta2
#
DISCID=63124919
DTITLE=Earl Hines - Deep Forrest, cd 2
DYEAR=1900
DGENRE=Jazz
TTITLE0=Up Jump The Devil
TTITLE1=My Melancholy Baby
TTITLE2=On The Sunny Side Of The Street
TTITLE3=Windy City Jive
TTITLE4=The Earl
TTITLE5=Second Balcony Jump
TTITLE6=Stormy Monday Blues
TTITLE7=Honeysuckle Rose
TTITLE8=Dark Eyes
TTITLE9=No Good Woman Blues
TTITLE10=Bo Legged Mama
TTITLE11=Spooky Boogie
TTITLE12=Keyboards Kappers
TTITLE13=Chicago
TTITLE14=Tea for Two
TTITLE15=Snappy Rhythm
TTITLE16=Singin' For My French Brothers
TTITLE17=Fine and Dandy
TTITLE18='Deed I Do
TTITLE19=These Foolish Things
TTITLE20=Rosetta
TTITLE21=Diane
TTITLE22=Honeysuckle Rose
TTITLE23=Green's Corner
TTITLE24=The Darktown Strutter's Ball
EXTD=
EXTT0=
EXTT1=
EXTT2=
EXTT3=
EXTT4=
EXTT5=
EXTT6=
EXTT7=
EXTT8=
EXTT9=
EXTT10=
EXTT11=
EXTT12=
EXTT13=
EXTT14=
EXTT15=
EXTT16=
EXTT17=
EXTT18=
EXTT19=
EXTT20=
EXTT21=
EXTT22=
EXTT23=
EXTT24=
PLAYORDER=
